<svg width="28" height="19" viewBox="0 0 28 19" fill="none" xmlns="http://www.w3.org/2000/svg">
<path d="M27.3512 3.35463C27.1976 2.80679 26.8984 2.31081 26.4853 1.91941C26.0606 1.51596 25.5401 1.22737 24.9728 1.08087C22.8498 0.521473 14.3444 0.521473 14.3444 0.521473C10.7986 0.481143 7.2536 0.658525 3.72953 1.05262C3.16226 1.20994 2.64268 1.50498 2.21699 1.91149C1.79873 2.31381 1.49577 2.80992 1.33751 3.3535C0.957334 5.40095 0.772619 7.47988 0.785854 9.56226C0.772289 11.6428 0.956551 13.721 1.33751 15.771C1.49238 16.3123 1.79421 16.8062 2.2136 17.2051C2.633 17.604 3.15526 17.8922 3.72953 18.0448C5.88076 18.6031 14.3444 18.6031 14.3444 18.6031C17.8947 18.6434 21.4442 18.4661 24.9728 18.0719C25.5401 17.9254 26.0606 17.6368 26.4853 17.2334C26.8982 16.842 27.1971 16.346 27.3501 15.7981C27.7402 13.7515 27.9299 11.6717 27.9165 9.58825C27.9458 7.49599 27.7564 5.4064 27.3512 3.3535V3.35463ZM11.6404 13.4317V5.69393L18.7169 9.56339L11.6404 13.4317Z" fill="#111111"/>
</svg>
